<svg width="50" height="50" viewBox="0 0 50 50" fill="none" xmlns="http://www.w3.org/2000/svg">
<path d="M25.2801 28.5581C25.2336 28.5581 25.1638 28.5581 25.1173 28.5581C25.0475 28.5581 24.9545 28.5581 24.8847 28.5581C19.6056 28.3953 15.6521 24.279 15.6521 19.2092C15.6521 14.0464 19.8614 9.83716 25.0243 9.83716C30.1871 9.83716 34.3964 14.0464 34.3964 19.2092C34.3731 24.3023 30.3964 28.3953 25.3498 28.5581C25.3033 28.5581 25.3033 28.5581 25.2801 28.5581ZM25.001 13.3023C21.7452 13.3023 19.1172 15.9534 19.1172 19.186C19.1172 22.372 21.6057 24.9534 24.7684 25.0697C24.8382 25.0464 25.0708 25.0464 25.3033 25.0697C28.4196 24.9069 30.8615 22.3488 30.8847 19.186C30.8847 15.9534 28.2568 13.3023 25.001 13.3023Z" fill="white"/>
<path d="M25.0017 49.9998C18.7459 49.9998 12.7692 47.6742 8.14129 43.4417C7.72268 43.0696 7.53664 42.5115 7.58315 41.9766C7.88547 39.2092 9.6064 36.6278 12.4669 34.7208C19.3971 30.1162 30.6296 30.1162 37.5366 34.7208C40.3971 36.651 42.118 39.2092 42.4203 41.9766C42.4901 42.5347 42.2808 43.0696 41.8622 43.4417C37.2343 47.6742 31.2575 49.9998 25.0017 49.9998ZM11.2343 41.5115C15.0948 44.744 19.9552 46.5114 25.0017 46.5114C30.0482 46.5114 34.9087 44.744 38.7692 41.5115C38.3506 40.0929 37.2343 38.7208 35.5831 37.6045C29.8622 33.7906 20.1645 33.7906 14.3971 37.6045C12.7459 38.7208 11.6529 40.0929 11.2343 41.5115Z" fill="white"/>
<path d="M25 49.9998C11.2093 49.9998 0 38.7905 0 24.9999C0 11.2093 11.2093 0 25 0C38.7907 0 50 11.2093 50 24.9999C50 38.7905 38.7907 49.9998 25 49.9998ZM25 3.48836C13.1395 3.48836 3.48837 13.1395 3.48837 24.9999C3.48837 36.8603 13.1395 46.5114 25 46.5114C36.8605 46.5114 46.5116 36.8603 46.5116 24.9999C46.5116 13.1395 36.8605 3.48836 25 3.48836Z" fill="white"/>
</svg>
